<svg aria-hidden="true" style="position: absolute; width: 0; height: 0; overflow: hidden;" version="1.1" xmlns="http://www.w3.org/2000/svg" xmlns:xlink="http://www.w3.org/1999/xlink">
<defs>
<symbol id="icon-enlarge" viewBox="0 0 32 32">
<path d="M32 0v13l-5-5-6 6-3-3 6-6-5-5zM14 21l-6 6 5 5h-13v-13l5 5 6-6z"></path>
</symbol>

<symbol id="icon-playstation4" viewBox="0 0 32 32">
<path fill="#003791" style="fill: var(--color1, #003791)" d="M16.407 17.573v-3.183c0-0.649 0.303-1.113 0.949-1.113h3.987c0.023 0 0.047-0.024 0.047-0.048v-0.633c0-0.005 0-0.011-0.004-0.016h-4.88c-1.056 0.133-1.573 0.871-1.573 1.811v3.181c0 0.644-0.311 1.109-0.947 1.109h-4.205c-0.024 0-0.048 0.016-0.048 0.048v0.633c0 0.027 0.013 0.047 0.031 0.053h4.779c1.244-0.033 1.857-0.827 1.865-1.843zM0.033 19.42h1.4c0.017-0.007 0.033-0.027 0.033-0.053v-2.027c0-0.651 0.367-1.099 0.901-1.099h5.765c1.299 0 1.928-0.8 1.928-1.845 0-0.941-0.516-1.677-1.573-1.811h-8.48c0 0.004-0.008 0.007-0.008 0.013v0.633c0 0.032 0.017 0.048 0.049 0.048h7.597c0.645 0 0.949 0.467 0.949 1.112s-0.303 1.115-0.949 1.115h-6.011c-0.933 0-1.635 0.789-1.635 1.831v2.027c0 0.027 0.013 0.048 0.032 0.056zM21.367 18.687h7.653c0.023 0 0.040 0.016 0.040 0.032v0.644c0 0.032 0.023 0.048 0.047 0.048h1.38c0.024 0 0.048-0.013 0.048-0.048v-0.633c0-0.024 0.027-0.048 0.053-0.048h1.371c0.032 0 0.048-0.024 0.048-0.048v-0.645c0-0.024-0.013-0.048-0.047-0.048h-1.373c-0.027 0-0.049-0.023-0.049-0.047v-4.616c0-0.377-0.139-0.617-0.373-0.697h-0.4c-0.124 0.032-0.26 0.089-0.404 0.176l-8.243 5.089c-0.32 0.2-0.431 0.424-0.351 0.593 0.064 0.139 0.247 0.243 0.6 0.248zM22.561 17.837l6.387-3.951c0.040-0.032 0.12-0.024 0.12 0.064v3.951c0 0.024-0.020 0.048-0.044 0.048h-6.424c-0.053 0-0.080-0.016-0.087-0.032-0.008-0.032 0.007-0.056 0.048-0.080z"></path>
</symbol>
<symbol id="icon-playstation" viewBox="0 0 32 32">
<path fill="#003791" style="fill: var(--color1, #003791)" d="M11.98 3.461v23.397l5.22 1.681v-19.623c0-0.92 0.405-1.535 1.059-1.321 0.848 0.241 1.013 1.085 1.013 2.007v7.835c3.255 1.591 5.816-0.003 5.816-4.204 0-4.316-1.501-6.233-5.917-7.769-1.743-0.597-4.971-1.581-7.188-2.003zM18.188 25.117l8.395-3.033c0.953-0.344 1.101-0.833 0.328-1.091-0.781-0.256-2.183-0.185-3.143 0.164l-5.607 1.999v-3.18l0.32-0.113c0 0 1.601-0.56 3.884-0.82 2.261-0.24 5.047 0.039 7.249 0.881 2.464 0.801 2.721 1.963 2.101 2.763s-2.163 1.381-2.163 1.381l-11.392 4.143v-3.063zM2.411 24.8c-2.533-0.727-2.952-2.224-1.803-3.095 1.068-0.78 2.879-1.401 2.879-1.401l7.488-2.684v3.084l-5.367 1.963c-0.94 0.361-1.1 0.843-0.319 1.101 0.781 0.26 2.183 0.2 3.124-0.16l2.584-0.941v2.765c-0.161 0.039-0.341 0.059-0.521 0.097-2.584 0.441-5.327 0.261-8.049-0.639z"></path>
</symbol>
<symbol id="icon-cheveron-up" viewBox="0 0 20 20">
<path d="M10.707 7.050l-0.707-0.707-5.657 5.657 1.414 1.414 4.243-4.242 4.243 4.242 1.414-1.414z"></path>
</symbol>
<symbol id="icon-cheveron-down" viewBox="0 0 20 20">
<path d="M9.293 12.95l0.707 0.707 5.657-5.657-1.414-1.414-4.243 4.242-4.243-4.242-1.414 1.414z"></path>
</symbol>
<symbol id="icon-cheveron-right" viewBox="0 0 20 20">
<path d="M12.95 10.707l0.707-0.707-5.657-5.657-1.414 1.414 4.242 4.243-4.242 4.243 1.414 1.414 4.95-4.95z"></path>
</symbol>
<symbol id="icon-cheveron-left" viewBox="0 0 20 20">
<path d="M7.050 9.293l-0.707 0.707 5.657 5.657 1.414-1.414-4.242-4.243 4.242-4.243-1.414-1.414z"></path>
</symbol>
<symbol id="icon-youtube" viewBox="0 0 32 32">
<path d="M31.681 9.6c0 0-0.313-2.206-1.275-3.175-1.219-1.275-2.581-1.281-3.206-1.356-4.475-0.325-11.194-0.325-11.194-0.325h-0.012c0 0-6.719 0-11.194 0.325-0.625 0.075-1.987 0.081-3.206 1.356-0.963 0.969-1.269 3.175-1.269 3.175s-0.319 2.588-0.319 5.181v2.425c0 2.587 0.319 5.181 0.319 5.181s0.313 2.206 1.269 3.175c1.219 1.275 2.819 1.231 3.531 1.369 2.563 0.244 10.881 0.319 10.881 0.319s6.725-0.012 11.2-0.331c0.625-0.075 1.988-0.081 3.206-1.356 0.962-0.969 1.275-3.175 1.275-3.175s0.319-2.587 0.319-5.181v-2.425c-0.006-2.588-0.325-5.181-0.325-5.181zM12.694 20.15v-8.994l8.644 4.513-8.644 4.481z"></path>
</symbol>
</defs>
</svg>
